<svg xmlns="http://www.w3.org/2000/svg" viewBox="0 0 250 85.33"><defs><style>.cls-1{fill:#f87c3d;}</style></defs><g id="Calque_2" data-name="Calque 2"><g id="Calque_1-2" data-name="Calque 1"><path class="cls-1" d="M72.88,30.36H17.61l-13,25.76H25.18c.17-.26.36-.52.55-.78a13.25,13.25,0,0,1,11.88-5.23c8.42,1,3.25,16.3-9.35,16.32-7,0-4.78-6.38-4.78-6.38L3.37,59.68.81,67.29a15.35,15.35,0,0,0-.63,2.39C-1,76.9,3.93,82,10.69,83.81A56.16,56.16,0,0,0,24.6,85.33c25.8.1,36.62-20.22,39.64-29.21h0Z"/><path class="cls-1" d="M250,30.36H194.72l-13,25.76H202.3c.17-.26.35-.52.55-.78a13.25,13.25,0,0,1,11.87-5.23c8.43,1,3.26,16.3-9.34,16.32-7,0-4.78-6.38-4.78-6.38l-20.12-.37-2.55,7.61a15.35,15.35,0,0,0-.63,2.39c-1.21,7.22,3.75,12.34,10.5,14.13a56.31,56.31,0,0,0,13.92,1.52c25.79.1,36.62-20.22,39.64-29.21h0Z"/><path class="cls-1" d="M104.55,27.23h0c-15,0-30.38,8.71-35.85,23.74L57.32,82.24H79.74L85.3,67.58h9.13L89.12,82.24h22.62L123.12,51C128.59,35.94,119.58,27.23,104.55,27.23Zm-17,30.61c.37-1.53.67-2.66.83-3.11,1.24-3.42,5-6.19,8.45-6.19s5.18,2.77,3.94,6.19c-.17.45-.69,1.58-1.44,3.11Z"/><path class="cls-1" d="M162.05,27.23h0c-15,0-30.39,8.71-35.86,23.74L114.81,82.24h22.43l5.55-14.66h9.13l-5.31,14.66h22.62L180.61,51C186.08,35.94,177.07,27.23,162.05,27.23ZM145,57.84c.37-1.53.67-2.66.83-3.11,1.25-3.42,5-6.19,8.45-6.19s5.18,2.77,3.94,6.19c-.16.45-.69,1.58-1.44,3.11Z"/><polygon class="cls-1" points="137.28 27.78 138.83 32.69 134.57 30.35 126.5 43.74 129.3 30.38 123.5 32.24 128.14 27.83 108.43 25.31 129.25 22.61 124.82 13.15 132.26 20.66 141.22 0 137.55 20.63 149.61 13.01 141.38 22.82 158.63 25.02 137.28 27.78"/></g></g></svg>