<svg width="104" height="16" viewBox="0 0 104 16" fill="none" xmlns="http://www.w3.org/2000/svg">
<path id="Vector" d="M103.711 14.4926V12.9762C103.711 12.7713 103.588 12.6483 103.301 12.6483H102.318C102.031 12.6483 101.826 12.6074 101.785 12.4844C101.703 12.3615 101.703 12.1156 101.703 11.7057V5.96802H103.301C103.424 5.96802 103.506 5.92703 103.588 5.84506C103.67 5.7631 103.711 5.68113 103.711 5.55818V3.95981C103.711 3.83686 103.67 3.7549 103.588 3.67293C103.506 3.59096 103.424 3.54998 103.301 3.54998H101.703V1.45982C101.703 1.33687 101.662 1.2549 101.621 1.21391C101.539 1.17293 101.457 1.13195 101.375 1.13195H101.334L98.957 1.54178C98.8341 1.58277 98.7521 1.62375 98.6701 1.66474C98.5882 1.7467 98.5472 1.82867 98.5472 1.91063V3.509H96.9488C96.8259 3.509 96.7439 3.54998 96.6619 3.63194C96.58 3.71391 96.539 3.79588 96.539 3.91883V5.23031C96.539 5.35326 96.58 5.43522 96.6619 5.47621C96.7439 5.55817 96.8259 5.59916 96.9488 5.64014L98.5472 5.88604V11.6237C98.5472 12.3205 98.6291 12.8942 98.7521 13.3451C98.916 13.7959 99.1209 14.1238 99.3668 14.3697C99.6537 14.6156 99.9816 14.7795 100.391 14.8615C100.801 14.9434 101.293 14.9844 101.826 14.9844C102.113 14.9844 102.359 14.9844 102.605 14.9434C102.809 14.9024 103.096 14.8615 103.383 14.8205C103.588 14.8205 103.711 14.6975 103.711 14.4926ZM95.1865 14.2877V12.5254C95.1865 12.4024 95.1455 12.3205 95.0636 12.2795C94.9816 12.2385 94.8996 12.1975 94.8177 12.1975H94.7767C94.4078 12.2385 94.039 12.2795 93.7111 12.2795C93.3832 12.3205 92.9324 12.3205 92.3586 12.3205C92.1537 12.3205 91.9078 12.2795 91.7439 12.1975C91.539 12.1156 91.375 11.9926 91.2111 11.8287C91.0472 11.6647 90.9652 11.4188 90.8832 11.1319C90.8013 10.8451 90.7603 10.4762 90.7603 10.0254V8.38605C90.7603 7.93523 90.8013 7.56637 90.8832 7.27949C90.9652 6.9926 91.0882 6.7467 91.2111 6.58277C91.375 6.41883 91.539 6.29588 91.7439 6.21391C91.9488 6.13195 92.1537 6.09096 92.3586 6.09096C92.9324 6.09096 93.3832 6.09096 93.7111 6.13195C94.039 6.17293 94.4078 6.17293 94.7767 6.21391H94.8177C94.9406 6.21391 95.0226 6.17293 95.0636 6.13195C95.1455 6.09096 95.1865 6.00899 95.1865 5.88604V4.12375C95.1865 3.95982 95.1455 3.87785 95.1045 3.83686C95.0226 3.79588 94.9406 3.71391 94.7767 3.67293C94.4898 3.59096 94.1619 3.54998 93.7111 3.46801C93.2603 3.38604 92.7685 3.38605 92.1537 3.38605C90.7603 3.38605 89.6537 3.79588 88.7931 4.65653C87.9734 5.51719 87.5226 6.7467 87.5226 8.38605V10.0254C87.5226 11.6238 87.9324 12.8942 88.7931 13.7549C89.6127 14.6156 90.7603 15.0254 92.1537 15.0254C92.7275 15.0254 93.2603 14.9844 93.7111 14.9434C94.1619 14.8615 94.5308 14.8205 94.7767 14.7385C94.9406 14.6975 95.0226 14.6565 95.1045 14.5746C95.1865 14.5336 95.1865 14.4106 95.1865 14.2877ZM82.3586 12.1975C82.1127 12.3205 81.8668 12.4024 81.58 12.4844C81.2931 12.5664 81.0062 12.6074 80.7193 12.6074C80.3095 12.6074 79.9816 12.5664 79.7767 12.4434C79.5718 12.3205 79.4898 12.0746 79.4898 11.6237V11.4598C79.4898 11.2139 79.5308 11.009 79.5718 10.8451C79.6127 10.6811 79.7357 10.5172 79.8586 10.3942C79.9816 10.2713 80.1865 10.1893 80.3914 10.1074C80.5964 10.0664 80.8832 10.0254 81.2521 10.0254H82.3586V12.1975ZM85.4734 7.40244C85.4734 6.66474 85.3504 6.04998 85.1455 5.55818C84.9406 5.06638 84.6127 4.65654 84.2439 4.32867C83.8341 4.0008 83.3832 3.75489 82.8095 3.63194C82.2357 3.46801 81.58 3.38605 80.8832 3.38605C80.2275 3.38605 79.5718 3.42703 78.957 3.509C78.3423 3.59097 77.8504 3.67293 77.4816 3.79588C77.2357 3.87785 77.1127 4.0008 77.1127 4.2467V5.84506C77.1127 5.96801 77.1537 6.04998 77.1947 6.13195C77.2767 6.17293 77.3586 6.21391 77.4406 6.21391H77.5226C77.6865 6.21391 77.8914 6.17293 78.0963 6.17293C78.3422 6.17293 78.5882 6.13195 78.875 6.13195C79.1619 6.13195 79.4898 6.09096 79.8177 6.09096C80.1455 6.09096 80.4734 6.09096 80.7603 6.09096C81.2111 6.09096 81.58 6.17293 81.8259 6.33687C82.0718 6.5008 82.2357 6.86965 82.2357 7.44342V8.14014H81.1701C79.4898 8.14014 78.2193 8.38605 77.4816 8.91883C76.7029 9.45162 76.3341 10.3123 76.3341 11.4598V11.6237C76.3341 12.2795 76.416 12.8123 76.6209 13.2221C76.8259 13.6729 77.0718 14.0008 77.3996 14.2877C77.7275 14.5336 78.0554 14.7385 78.4652 14.8615C78.875 14.9844 79.2849 15.0254 79.7357 15.0254C80.3095 15.0254 80.8422 14.9434 81.2521 14.7795C81.6619 14.6156 82.0718 14.4106 82.4816 14.1238V14.4516C82.4816 14.5746 82.5226 14.6565 82.6045 14.7385C82.6865 14.8205 82.7685 14.8615 82.8914 14.8615H85.1045C85.2275 14.8615 85.3095 14.8205 85.3914 14.7385C85.4734 14.6565 85.5144 14.5746 85.5144 14.4516V7.40244H85.4734ZM74.9406 14.4926V12.9762C74.9406 12.7713 74.8177 12.6483 74.5308 12.6483H73.5882C73.3013 12.6483 73.0963 12.6074 73.0554 12.4844C72.9734 12.3615 72.9734 12.1156 72.9734 11.7057V5.96802H74.5718C74.6947 5.96802 74.7767 5.92703 74.8586 5.84506C74.9406 5.7631 74.9816 5.68113 74.9816 5.55818V3.95981C74.9816 3.83686 74.9406 3.7549 74.8586 3.67293C74.7767 3.59096 74.6947 3.54998 74.5718 3.54998H72.9734V1.45982C72.9734 1.33687 72.9324 1.2549 72.8914 1.21391C72.8095 1.17293 72.7275 1.13195 72.6455 1.13195H72.6045L70.2275 1.54178C70.1045 1.58277 70.0226 1.62375 69.9406 1.66474C69.8586 1.7467 69.8177 1.82867 69.8177 1.91063V3.509H68.2193C68.0963 3.509 68.0144 3.54998 67.9324 3.63194C67.8504 3.71391 67.8095 3.79588 67.8095 3.91883V5.23031C67.8095 5.35326 67.8504 5.43522 67.9324 5.47621C68.0144 5.55817 68.0963 5.59916 68.2193 5.64014L69.8177 5.88604V11.6237C69.8177 12.3205 69.8996 12.8942 70.0226 13.3451C70.1865 13.7959 70.3914 14.1238 70.6373 14.3697C70.8832 14.6156 71.2521 14.7795 71.6619 14.8615C72.0718 14.9434 72.5636 14.9844 73.0963 14.9844C73.3832 14.9844 73.6291 14.9844 73.875 14.9434C74.0799 14.9024 74.3668 14.8615 74.6537 14.8205C74.8177 14.8205 74.9406 14.6975 74.9406 14.4926ZM66.3341 14.4516V7.89424C66.3341 7.27949 66.2931 6.70572 66.1701 6.13195C66.0881 5.59916 65.8832 5.10736 65.6373 4.69752C65.3914 4.28768 65.0226 3.95981 64.5718 3.7549C64.1209 3.50899 63.5472 3.38605 62.8095 3.38605C62.1947 3.38605 61.6209 3.46801 61.1291 3.63194C60.6373 3.79588 60.1455 4.04178 59.5718 4.45162V3.95981C59.5718 3.83686 59.5308 3.7549 59.4488 3.67293C59.3668 3.59096 59.2849 3.54998 59.1619 3.54998H56.9488C56.8258 3.54998 56.7439 3.59096 56.6619 3.67293C56.5799 3.7549 56.539 3.83686 56.539 3.95981V14.4516C56.539 14.5746 56.5799 14.6565 56.6619 14.7385C56.7439 14.8205 56.8258 14.8615 56.9488 14.8615H59.3258C59.4488 14.8615 59.5308 14.8205 59.6127 14.7385C59.6947 14.6565 59.7357 14.5746 59.7357 14.4516V6.70572C60.0636 6.54178 60.3914 6.37785 60.7193 6.2549C61.0062 6.13195 61.334 6.09096 61.6209 6.09096C61.9078 6.09096 62.1537 6.13195 62.3586 6.17293C62.5636 6.21392 62.6865 6.33687 62.8095 6.45982C62.9324 6.62375 62.9734 6.78768 63.0144 7.03359C63.0554 7.27949 63.0554 7.56637 63.0554 7.89424V14.4516C63.0554 14.5746 63.0963 14.6565 63.1783 14.7385C63.2603 14.8205 63.3422 14.8615 63.4652 14.8615H65.8422C65.9652 14.8615 66.0472 14.8205 66.1291 14.7385C66.2931 14.6565 66.3341 14.5336 66.3341 14.4516ZM51.416 9.90244C51.416 11.5008 50.8422 12.3205 49.6537 12.3205C49.0799 12.3205 48.6291 12.1156 48.3422 11.7057C48.0554 11.2959 47.8914 10.6811 47.8914 9.90244V8.509C47.8914 7.68933 48.0554 7.11555 48.3422 6.70572C48.6291 6.29588 49.0799 6.09096 49.6537 6.09096C50.8013 6.09096 51.416 6.91064 51.416 8.509V9.90244ZM54.6127 8.509C54.6127 7.73031 54.4898 6.99261 54.2849 6.37785C54.0799 5.7631 53.7521 5.23031 53.3422 4.77949C52.9324 4.32867 52.3996 4.0008 51.7849 3.7549C51.1701 3.50899 50.4734 3.38605 49.6537 3.38605C48.834 3.38605 48.1373 3.50899 47.5226 3.7549C46.9078 4.0008 46.375 4.32867 45.9652 4.77949C45.5554 5.23031 45.2275 5.7631 45.0226 6.37785C44.8176 6.99261 44.6947 7.73031 44.6947 8.509V9.90244C44.6947 10.6811 44.8176 11.4188 45.0226 12.0336C45.2275 12.6483 45.5554 13.1811 45.9652 13.632C46.375 14.0828 46.9078 14.4106 47.5226 14.6565C48.1373 14.9024 48.834 15.0254 49.6537 15.0254C50.4734 15.0254 51.1701 14.9024 51.7849 14.6565C52.3996 14.4106 52.9324 14.0828 53.3422 13.632C53.7521 13.1811 54.0799 12.6483 54.2849 12.0336C54.4898 11.4188 54.6127 10.6811 54.6127 9.90244V8.509ZM43.6291 14.2877V12.5254C43.6291 12.4024 43.5881 12.3205 43.5062 12.2795C43.4242 12.2385 43.3422 12.1975 43.2193 12.1975H43.1783C42.8095 12.2385 42.4406 12.2795 42.1127 12.2795C41.7849 12.2795 41.334 12.3205 40.7603 12.3205C40.5554 12.3205 40.3094 12.2795 40.1455 12.1975C39.9406 12.1156 39.7767 11.9926 39.6127 11.8287C39.4488 11.6647 39.3668 11.4188 39.2849 11.1319C39.2029 10.8451 39.1619 10.4762 39.1619 10.0254V8.38605C39.1619 7.93523 39.2029 7.56637 39.2849 7.27949C39.3668 6.9926 39.4898 6.7467 39.6127 6.58277C39.7767 6.41883 39.9406 6.29588 40.1455 6.21391C40.3504 6.13195 40.5554 6.09096 40.7603 6.09096C41.334 6.09096 41.7849 6.09096 42.1127 6.13195C42.4406 6.17293 42.8095 6.17293 43.1783 6.21391H43.2193C43.3422 6.21391 43.4242 6.17293 43.5062 6.13195C43.5881 6.09096 43.6291 6.00899 43.6291 5.88604V4.12375C43.6291 3.95982 43.5881 3.87785 43.5472 3.83686C43.4652 3.79588 43.3832 3.71391 43.2193 3.67293C42.9324 3.59096 42.6045 3.54998 42.1537 3.46801C41.7029 3.38604 41.2111 3.38605 40.5963 3.38605C39.2029 3.38605 38.0963 3.79588 37.2357 4.65653C36.416 5.51719 35.9652 6.7467 35.9652 8.38605V10.0254C35.9652 11.6238 36.375 12.8942 37.2357 13.7549C38.0554 14.6156 39.2029 15.0254 40.5963 15.0254C41.1701 15.0254 41.7029 14.9844 42.1537 14.9434C42.6045 14.8615 42.9324 14.8205 43.2193 14.7385C43.3832 14.6975 43.4652 14.6565 43.5472 14.5746C43.6291 14.5336 43.6291 14.4106 43.6291 14.2877ZM33.957 14.4516V7.89424C33.957 7.27949 33.916 6.70572 33.7931 6.13195C33.7111 5.59916 33.5062 5.10736 33.2603 4.69752C33.0144 4.28768 32.6455 3.95981 32.1947 3.7549C31.7439 3.50899 31.1701 3.38605 30.4324 3.38605C29.8176 3.38605 29.2439 3.46801 28.7521 3.63194C28.2603 3.79588 27.7685 4.04178 27.1947 4.45162V3.95981C27.1947 3.83686 27.1537 3.7549 27.0717 3.67293C26.9898 3.59096 26.9078 3.54998 26.7849 3.54998H24.5717C24.4488 3.54998 24.3668 3.59096 24.2849 3.67293C24.2029 3.7549 24.1619 3.83686 24.1619 3.95981V14.4516C24.1619 14.5746 24.2029 14.6565 24.2849 14.7385C24.3668 14.8205 24.4488 14.8615 24.5717 14.8615H26.9488C27.0717 14.8615 27.1537 14.8205 27.2357 14.7385C27.3176 14.6565 27.3586 14.5746 27.3586 14.4516V6.70572C27.6865 6.54178 28.0144 6.37785 28.3422 6.2549C28.6291 6.13195 28.957 6.09096 29.2439 6.09096C29.5308 6.09096 29.7767 6.13195 29.9816 6.17293C30.1865 6.21392 30.3094 6.33687 30.4324 6.45982C30.5553 6.62375 30.5963 6.78768 30.6373 7.03359C30.6783 7.27949 30.6783 7.56637 30.6783 7.89424V14.4516C30.6783 14.5746 30.7193 14.6565 30.8013 14.7385C30.8832 14.8205 30.9652 14.8615 31.0881 14.8615H33.4652C33.5881 14.8615 33.6701 14.8205 33.7521 14.7385C33.875 14.6565 33.957 14.5336 33.957 14.4516ZM18.7111 12.1975C18.4652 12.3205 18.2193 12.4024 17.9324 12.4844C17.6455 12.5664 17.3586 12.6074 17.0717 12.6074C16.6619 12.6074 16.334 12.5664 16.1291 12.4434C15.9242 12.3205 15.8422 12.0746 15.8422 11.6237V11.4598C15.8422 11.2139 15.8832 11.009 15.9242 10.8451C15.9652 10.6811 16.0881 10.5172 16.2111 10.3942C16.334 10.2713 16.539 10.1893 16.7439 10.1074C16.9488 10.0664 17.2357 10.0254 17.6045 10.0254H18.7111V12.1975ZM21.8668 7.40244C21.8668 6.66474 21.7439 6.04998 21.539 5.55818C21.334 5.06638 21.0062 4.65654 20.6373 4.32867C20.2275 4.0008 19.7767 3.75489 19.2029 3.63194C18.6291 3.46801 17.9734 3.38605 17.2767 3.38605C16.6209 3.38605 15.9652 3.42703 15.3504 3.509C14.7357 3.59097 14.2439 3.67293 13.875 3.79588C13.6291 3.87785 13.5062 4.0008 13.5062 4.2467V5.84506C13.5062 5.96801 13.5472 6.04998 13.5881 6.13195C13.6701 6.17293 13.7521 6.21391 13.834 6.21391H13.916C14.0799 6.21391 14.2849 6.17293 14.4898 6.17293C14.7357 6.17293 14.9816 6.13195 15.3094 6.13195C15.5963 6.13195 15.9242 6.09096 16.2521 6.09096C16.5799 6.09096 16.9078 6.09096 17.1947 6.09096C17.6455 6.09096 18.0144 6.17293 18.2603 6.33687C18.5062 6.5008 18.6701 6.86965 18.6701 7.44342V8.14014H17.6045C15.9242 8.14014 14.6537 8.38605 13.916 8.91883C13.1783 9.45162 12.7685 10.3123 12.7685 11.4598V11.6237C12.7685 12.2795 12.8504 12.8123 13.0553 13.2221C13.2603 13.6729 13.5062 14.0008 13.834 14.2877C14.1619 14.5336 14.4898 14.7385 14.8996 14.8615C15.3094 14.9844 15.7193 15.0254 16.1701 15.0254C16.7439 15.0254 17.2767 14.9434 17.6865 14.7795C18.0963 14.6156 18.5062 14.4106 18.916 14.1238V14.4516C18.916 14.5746 18.957 14.6565 19.039 14.7385C19.1209 14.8205 19.2029 14.8615 19.3258 14.8615H21.539C21.6619 14.8615 21.7439 14.8205 21.8258 14.7385C21.9078 14.6565 21.9488 14.5746 21.9488 14.4516V7.40244H21.8668ZM7.76846 10.5172C7.76846 11.05 7.56354 11.5008 7.19469 11.7877C6.82584 12.0746 6.08813 12.2385 5.10453 12.2385H4.77666C4.61272 12.2385 4.44879 12.2385 4.28485 12.2385C4.12092 12.2385 3.95698 12.2385 3.79305 12.2385H3.46518V8.54998H5.6783C6.45698 8.54998 7.03076 8.71391 7.31764 9.08277C7.60453 9.45162 7.76846 9.86145 7.76846 10.3123V10.5172ZM7.68649 4.65653C7.68649 4.86145 7.64551 5.06637 7.60453 5.27129C7.52256 5.47621 7.44059 5.64015 7.27666 5.7631C7.11272 5.88605 6.90781 6.00899 6.6619 6.09096C6.416 6.17293 6.08813 6.21391 5.6783 6.21391H3.46518V2.81227C3.54715 2.81227 3.62911 2.81227 3.75207 2.81227C3.87502 2.81227 4.03895 2.81227 4.20289 2.81227H4.65371H4.98157C6.00616 2.81227 6.70289 2.93523 7.11272 3.18113C7.52256 3.42703 7.72748 3.83686 7.72748 4.36965V4.65653H7.68649ZM11.0472 10.3123C11.0472 9.61555 10.8832 9.04178 10.5553 8.54998C10.2275 8.05817 9.81764 7.64834 9.28485 7.40244C9.81764 7.15654 10.2275 6.7467 10.5144 6.2549C10.8012 5.72211 10.9652 5.14834 10.9652 4.53359V4.16473C10.9652 3.38604 10.8012 2.7303 10.5144 2.19752C10.2275 1.66473 9.77666 1.2549 9.24387 0.927029C8.71108 0.59916 8.05535 0.394243 7.27666 0.230309C6.49797 0.107358 5.6783 0.0253906 4.73567 0.0253906C4.4078 0.0253906 4.07993 0.0253906 3.75207 0.0253906C3.4242 0.0253906 3.09633 0.0663705 2.76846 0.0663705C2.44059 0.0663705 2.15371 0.107353 1.86682 0.148336C1.57993 0.18932 1.37502 0.189325 1.21108 0.230309C0.84223 0.312276 0.555345 0.394241 0.39141 0.599159C0.227476 0.763093 0.145508 1.09096 0.145508 1.54178V13.509C0.145508 13.9598 0.227476 14.2467 0.39141 14.4516C0.555345 14.6156 0.84223 14.7385 1.21108 14.8205C1.416 14.8615 1.6619 14.9024 1.9078 14.9024C2.19469 14.9434 2.48157 14.9434 2.80944 14.9844C3.13731 14.9844 3.46518 15.0254 3.79305 15.0254C4.12092 15.0254 4.48977 15.0254 4.81764 15.0254C5.6783 15.0254 6.49797 14.9434 7.23567 14.8205C7.97338 14.6975 8.6701 14.4516 9.20289 14.1238C9.77666 13.7959 10.1865 13.3451 10.5553 12.7713C10.8832 12.1975 11.0472 11.4598 11.0472 10.5992V10.3123Z" fill="#F87C3D"/>
</svg>
