<svg width="117" height="16" viewBox="0 0 117 16" fill="none" xmlns="http://www.w3.org/2000/svg">
<path id="XMLID_1775_" d="M17.1735 14.8069V8.18734C17.1735 5.65521 15.6311 3.99712 12.9832 3.99712C11.6593 3.99712 10.2198 4.43413 9.23004 5.87372C8.45883 4.66549 7.35343 3.99712 5.69533 3.99712C4.58993 3.99712 3.48454 4.33131 2.6105 5.53953V4.21563H0.296875V14.8069H2.6105V8.95855C2.6105 7.08194 3.60022 6.19506 5.14263 6.19506C6.68505 6.19506 7.45626 7.18477 7.45626 8.95855V14.8069H9.76988V8.95855C9.76988 7.08194 10.8753 6.19506 12.302 6.19506C13.8444 6.19506 14.6156 7.18477 14.6156 8.95855V14.8069H17.1735ZM51.4922 4.21563H47.739V1.01511H45.4254V4.21563H43.3303V6.31074H45.4254V11.1693C45.4254 13.5987 46.4151 15.0254 49.0629 15.0254C50.0527 15.0254 51.1581 14.6912 51.9293 14.2542L51.2609 12.2619C50.5925 12.6989 49.8213 12.8146 49.2686 12.8146C48.1632 12.8146 47.7262 12.1462 47.7262 11.0537V6.31074H51.4794V4.21563H51.4922ZM71.1323 3.98426C69.8084 3.98426 68.9215 4.65264 68.3689 5.52667V4.20277H66.0552V14.794H68.3689V8.83002C68.3689 7.06909 69.1401 6.06652 70.5796 6.06652C71.0167 6.06652 71.5694 6.1822 72.0192 6.28503L72.6876 4.07423C72.2249 3.98426 71.5694 3.98426 71.1323 3.98426ZM41.4537 5.08966C40.3483 4.31845 38.8059 3.98426 37.1478 3.98426C34.5 3.98426 32.739 5.30817 32.739 7.40329C32.739 9.16421 34.0629 10.1668 36.3766 10.4881L37.482 10.6038C38.6902 10.8223 39.3586 11.1565 39.3586 11.7092C39.3586 12.4804 38.4717 13.0331 36.9293 13.0331C35.3868 13.0331 34.1658 12.4804 33.3946 11.9277L32.2892 13.6886C33.4974 14.5755 35.1555 15.0125 36.8136 15.0125C39.8984 15.0125 41.6722 13.5729 41.6722 11.5935C41.6722 9.71691 40.2326 8.72719 38.0347 8.393L36.9293 8.27732C35.9395 8.16164 35.1683 7.94313 35.1683 7.2876C35.1683 6.51639 35.9395 6.07938 37.1606 6.07938C38.4845 6.07938 39.8084 6.63207 40.4768 6.96626L41.4537 5.08966ZM103.009 3.98426C101.685 3.98426 100.798 4.65264 100.245 5.52667V4.20277H97.9318V14.794H100.245V8.83002C100.245 7.06909 101.017 6.06652 102.456 6.06652C102.893 6.06652 103.446 6.1822 103.896 6.28503L104.564 4.09994C104.114 3.98426 103.459 3.98426 103.009 3.98426ZM73.446 9.51125C73.446 12.7118 75.6568 15.0254 79.0758 15.0254C80.6182 15.0254 81.7236 14.6912 82.829 13.8172L81.7236 11.9406C80.8367 12.6089 79.9627 12.9303 78.9601 12.9303C77.0835 12.9303 75.7596 11.6064 75.7596 9.51125C75.7596 7.51896 77.0835 6.19506 78.9601 6.09223C79.9498 6.09223 80.8367 6.42642 81.7236 7.08195L82.829 5.20534C81.7236 4.31845 80.6182 3.99712 79.0758 3.99712C75.6568 3.98426 73.446 6.31074 73.446 9.51125ZM94.847 9.51125V4.21563H92.5334V5.53953C91.7622 4.54981 90.6568 3.99712 89.2172 3.99712C86.2352 3.99712 83.9215 6.31074 83.9215 9.51125C83.9215 12.7118 86.2352 15.0254 89.2172 15.0254C90.7596 15.0254 91.865 14.4727 92.5334 13.483V14.8069H94.847V9.51125ZM86.3509 9.51125C86.3509 7.63464 87.5591 6.09223 89.5514 6.09223C91.428 6.09223 92.7519 7.53182 92.7519 9.51125C92.7519 11.3879 91.428 12.9303 89.5514 12.9303C87.5719 12.8146 86.3509 11.375 86.3509 9.51125ZM58.6645 3.98426C55.5796 3.98426 53.3689 6.19506 53.3689 9.4984C53.3689 12.8146 55.5796 15.0125 58.7802 15.0125C60.3226 15.0125 61.865 14.5755 63.0861 13.573L61.9807 11.9148C61.0938 12.5832 59.9884 13.0203 58.8958 13.0203C57.4563 13.0203 56.0295 12.3519 55.6953 10.4881H63.5231C63.5231 10.1539 63.5231 9.93542 63.5231 9.60122C63.6259 6.19506 61.6336 3.98426 58.6645 3.98426ZM58.6645 5.97655C60.1041 5.97655 61.0938 6.86344 61.3123 8.50868H55.7982C56.0167 7.08194 57.0064 5.97655 58.6645 5.97655ZM116.145 9.51125V0.0253906H113.832V5.53953C113.06 4.54981 111.955 3.99712 110.515 3.99712C107.533 3.99712 105.22 6.31074 105.22 9.51125C105.22 12.7118 107.533 15.0254 110.515 15.0254C112.058 15.0254 113.163 14.4727 113.832 13.483V14.8069H116.145V9.51125ZM107.649 9.51125C107.649 7.63464 108.857 6.09223 110.85 6.09223C112.726 6.09223 114.05 7.53182 114.05 9.51125C114.05 11.3879 112.726 12.9303 110.85 12.9303C108.857 12.8146 107.649 11.375 107.649 9.51125ZM30.194 9.51125V4.21563H27.8804V5.53953C27.1092 4.54981 26.0038 3.99712 24.5642 3.99712C21.5822 3.99712 19.2686 6.31074 19.2686 9.51125C19.2686 12.7118 21.5822 15.0254 24.5642 15.0254C26.1066 15.0254 27.212 14.4727 27.8804 13.483V14.8069H30.194V9.51125ZM21.5951 9.51125C21.5951 7.63464 22.8033 6.09223 24.7956 6.09223C26.6722 6.09223 27.9961 7.53182 27.9961 9.51125C27.9961 11.3879 26.6722 12.9303 24.7956 12.9303C22.8033 12.8146 21.5951 11.375 21.5951 9.51125Z" fill="#F87C3D"/>
</svg>
