<svg width="57" height="16" viewBox="0 0 57 16" fill="none" xmlns="http://www.w3.org/2000/svg">
<g id="PayPal_logo 1" clip-path="url(#clip0_647_405)">
<g id="g10">
<g id="g12">
<path id="path14" d="M7.46566 0.0258255H3.08746C2.78781 0.0258255 2.53304 0.243546 2.48629 0.539406L0.715535 11.7663C0.680316 11.9877 0.851924 12.1875 1.07659 12.1875H3.16682C3.46642 12.1875 3.72119 11.9699 3.76794 11.6735L4.24551 8.64543C4.29163 8.34896 4.54703 8.13128 4.846 8.13128H6.23201C9.11605 8.13128 10.7805 6.73567 11.2152 3.97008C11.4111 2.76011 11.2235 1.80946 10.657 1.14368C10.0347 0.412514 8.93102 0.0258255 7.46566 0.0258255ZM7.97078 4.1263C7.73134 5.69732 6.53098 5.69732 5.37032 5.69732H4.70967L5.17314 2.76336C5.2007 2.586 5.35431 2.45541 5.53358 2.45541H5.83636C6.62698 2.45541 7.37284 2.45541 7.7582 2.90605C7.98805 3.17497 8.05849 3.57443 7.97078 4.1263Z" fill="#F87C3D"/>
<path id="path16" d="M20.5531 4.07647H18.4566C18.278 4.07647 18.1237 4.20708 18.0961 4.38442L18.0034 4.97082L17.8567 4.75826C17.4028 4.09949 16.3906 3.87931 15.3804 3.87931C13.0636 3.87931 11.0848 5.63404 10.6994 8.09555C10.4991 9.32341 10.784 10.4975 11.4805 11.3163C12.1194 12.0691 13.0335 12.3828 14.1213 12.3828C15.988 12.3828 17.0232 11.1825 17.0232 11.1825L16.9297 11.7651C16.8945 11.9879 17.0661 12.1876 17.2896 12.1876H19.178C19.4782 12.1876 19.7318 11.9699 19.7792 11.6736L20.9123 4.4977C20.9482 4.27683 20.7772 4.07647 20.5531 4.07647ZM17.6307 8.15702C17.4285 9.35476 16.4777 10.1589 15.2653 10.1589C14.6565 10.1589 14.1699 9.9636 13.8574 9.59357C13.5476 9.22611 13.4298 8.70308 13.5284 8.12049C13.7172 6.93296 14.684 6.10269 15.8778 6.10269C16.4733 6.10269 16.9572 6.30048 17.2761 6.67365C17.5956 7.05072 17.7222 7.57698 17.6307 8.15702Z" fill="#F87C3D"/>
<path id="path18" d="M31.7194 4.07623H29.6126C29.4116 4.07623 29.2227 4.1761 29.1088 4.34323L26.203 8.62349L24.9713 4.5103C24.8938 4.25291 24.6563 4.07623 24.3875 4.07623H22.3171C22.0655 4.07623 21.8908 4.32204 21.9708 4.55892L24.2914 11.3692L22.1097 14.4492C21.938 14.6917 22.1109 15.0254 22.4074 15.0254H24.5117C24.7114 15.0254 24.8984 14.928 25.0116 14.7641L32.019 4.64924C32.1868 4.40719 32.0146 4.07623 31.7194 4.07623Z" fill="#F87C3D"/>
<path id="path20" d="M38.6942 0.0258255H34.3153C34.0164 0.0258255 33.7615 0.243546 33.7148 0.539406L31.944 11.7663C31.9089 11.9877 32.0804 12.1875 32.3039 12.1875H34.5509C34.7596 12.1875 34.9383 12.0352 34.9709 11.8278L35.4734 8.64543C35.5195 8.34896 35.775 8.13128 36.0739 8.13128H37.4593C40.3439 8.13128 42.0078 6.73567 42.4431 3.97008C42.6397 2.76011 42.4508 1.80946 41.8842 1.14368C41.2626 0.412514 40.1596 0.0258255 38.6942 0.0258255ZM39.1993 4.1263C38.9605 5.69732 37.7602 5.69732 36.5988 5.69732H35.9389L36.403 2.76336C36.4305 2.586 36.5828 2.45541 36.7627 2.45541H37.0655C37.8556 2.45541 38.602 2.45541 38.9874 2.90605C39.2172 3.17497 39.287 3.57443 39.1993 4.1263Z" fill="#F87C3D"/>
<path id="path22" d="M51.781 4.07647H49.6856C49.5057 4.07647 49.3526 4.20708 49.3258 4.38442L49.233 4.97082L49.0858 4.75826C48.6319 4.09949 47.6204 3.87931 46.6102 3.87931C44.2932 3.87931 42.3152 5.63404 41.9297 8.09555C41.73 9.32341 42.0136 10.4975 42.7102 11.3163C43.3504 12.0691 44.2632 12.3828 45.3509 12.3828C47.2176 12.3828 48.2528 11.1825 48.2528 11.1825L48.1593 11.7651C48.1242 11.9879 48.2957 12.1876 48.5205 12.1876H50.4084C50.7073 12.1876 50.9622 11.9699 51.0089 11.6736L52.1427 4.4977C52.1771 4.27683 52.0056 4.07647 51.781 4.07647ZM48.8584 8.15702C48.6574 9.35476 47.7054 10.1589 46.493 10.1589C45.8854 10.1589 45.3976 9.9636 45.0852 9.59357C44.7754 9.22611 44.6588 8.70308 44.7562 8.12049C44.9463 6.93296 45.9117 6.10269 47.1057 6.10269C47.701 6.10269 48.185 6.30048 48.5038 6.67365C48.8245 7.05072 48.9513 7.57698 48.8584 8.15702Z" fill="#F87C3D"/>
<path id="path24" d="M54.2528 0.33384L52.4558 11.7663C52.4206 11.9877 52.5921 12.1875 52.8156 12.1875H54.6221C54.9224 12.1875 55.1773 11.9699 55.2233 11.6735L56.9953 0.447242C57.0306 0.225648 56.859 0.0252924 56.6356 0.0252924H54.6125C54.4339 0.0258265 54.2803 0.156591 54.2528 0.33384Z" fill="#F87C3D"/>
</g>
</g>
</g>
<defs>
<clipPath id="clip0_647_405">
<rect width="56.2894" height="15" fill="white" transform="translate(0.710938 0.0253906)"/>
</clipPath>
</defs>
</svg>
