<svg width="50" height="17" viewBox="0 0 50 17" fill="none" xmlns="http://www.w3.org/2000/svg">
<g id="Visa_Inc._logo" clip-path="url(#clip0_647_414)">
<g id="g4158">
<path id="polygon9" d="M21.6666 16.2951H17.6162L20.1496 0.806641H24.1997L21.6666 16.2951Z" fill="#F87C3D"/>
<path id="path11" d="M36.3492 1.18479C35.5503 0.871408 34.2831 0.525391 32.7163 0.525391C28.7165 0.525391 25.8998 2.63434 25.8825 5.64951C25.8493 7.87409 27.8992 9.10968 29.4323 9.85143C30.9993 10.6094 31.532 11.1041 31.532 11.7797C31.5161 12.8173 30.2658 13.2956 29.0996 13.2956C27.4826 13.2956 26.6161 13.049 25.2994 12.4717L24.766 12.2243L24.1992 15.7011C25.1492 16.129 26.8994 16.5088 28.7165 16.5254C32.9664 16.5254 35.7332 14.4491 35.766 11.2359C35.7822 9.47278 34.6997 8.12178 32.3661 7.01781C30.9495 6.30913 30.0819 5.83128 30.0819 5.10618C30.0986 4.44699 30.8157 3.77182 32.4149 3.77182C33.7316 3.73875 34.6991 4.0517 35.432 4.36487L35.7983 4.52933L36.3492 1.18479Z" fill="#F87C3D"/>
<path id="path13" d="M41.7334 10.8081C42.0669 9.91828 43.3504 6.47453 43.3504 6.47453C43.3336 6.5076 43.6833 5.56832 43.8833 4.99169L44.1664 6.32627C44.1664 6.32627 44.9334 10.0337 45.1 10.8081C44.467 10.8081 42.5334 10.8081 41.7334 10.8081ZM46.733 0.806641H43.6001C42.6339 0.806641 41.8999 1.08652 41.4831 2.09172L35.4668 16.2948H39.7167C39.7167 16.2948 40.4164 14.3832 40.5668 13.9715C41.033 13.9715 45.1673 13.9715 45.7671 13.9715C45.8834 14.5153 46.2504 16.2948 46.2504 16.2948H50.0006L46.733 0.806641Z" fill="#F87C3D"/>
<path id="path15" d="M14.2334 0.806641L10.2667 11.3683L9.83328 9.22624C9.09993 6.75463 6.8 4.06928 4.2334 2.73404L7.86669 16.2786H12.1498L18.5163 0.806641H14.2334Z" fill="#F87C3D"/>
<path id="path17" d="M6.58329 0.806641H0.0666676L0 1.11959C5.08337 2.40489 8.44999 5.50306 9.83318 9.2269L8.41654 2.10858C8.18332 1.11937 7.46658 0.839271 6.58329 0.806641Z" fill="#F87C3D"/>
</g>
</g>
<defs>
<clipPath id="clip0_647_414">
<rect width="50" height="16" fill="white" transform="translate(0 0.525391)"/>
</clipPath>
</defs>
</svg>
